<svg xmlns="http://www.w3.org/2000/svg" viewBox="0 0 64 80" x="0px" y="0px"><title>whistle, sound, referee, sport, coach, </title><g><path d="M60,22H36l-1,0v2.79A1.13,1.13,0,0,1,34.16,26,1,1,0,0,1,33,25V23l0-1H25A16,16,0,0,0,9.58,33.73,5,5,0,1,0,6,42.9V54a1,1,0,0,0,2,0V42.89a4.93,4.93,0,0,0,1.59-.62A16.2,16.2,0,0,0,24.24,54L25,54A16,16,0,0,0,41,38a.71.71,0,0,1,.62-.7l17.29-2A3.5,3.5,0,0,0,62,31.78V24A2,2,0,0,0,60,22ZM8,40.82V38a1,1,0,0,0-2,0v2.82a3,3,0,1,1,3.14-4.91c0,.25,0,.51-.07.77s0,.34,0,.52c0,.52,0,1,0,1.57H9c0,.31,0,.59.07.86l0,.24c0,.08,0,.16,0,.24A3,3,0,0,1,8,40.82Zm52-9a1.5,1.5,0,0,1-1.33,1.49l-17.29,2A2.7,2.7,0,0,0,39,38,14,14,0,0,1,24.34,52,14.18,14.18,0,0,1,11.5,41.7a12.73,12.73,0,0,1-.32-1.47A12.35,12.35,0,0,1,11,38.66c0-.41,0-.82,0-1.23,0-.12,0-.24,0-.36,0-.44.08-.87.15-1.3h0a12.27,12.27,0,0,1,.3-1.45A14,14,0,0,1,25,24h6v1a3,3,0,0,0,3.45,3A3.11,3.11,0,0,0,37,24.84V24H60Z"/><path d="M25,27A11,11,0,1,0,36,38,11,11,0,0,0,25,27Zm0,20a9,9,0,1,1,9-9A9,9,0,0,1,25,47Z"/><rect x="33" y="9" width="2" height="10"/><rect x="26.5" y="9.76" width="2" height="9.49" transform="translate(-3.18 9.45) rotate(-18.45)"/><rect x="35.75" y="13.5" width="9.49" height="2" transform="translate(13.94 48.33) rotate(-71.57)"/></g></svg>