<svg xmlns="http://www.w3.org/2000/svg" xmlns:svg="http://www.w3.org/2000/svg" viewBox="0 0 64 80" version="1.1" x="0px" y="0px"><g transform="translate(0,-384)"><path style="color:#000000;" d="m 17.908203,420.00391 a 1.000005,1.000005 0 0 0 -0.386719,0.0547 1.000005,1.000005 0 0 0 -0.611328,1.27539 C 19.001705,427.25022 24.479605,431.56336 31,431.9668 V 439 a 1,1 0 0 0 1,1 1,1 0 0 0 1,-1 v -7.0332 c 6.520395,-0.40344 11.998295,-4.71658 14.089844,-10.63282 a 1.000005,1.000005 0 0 0 -0.611328,-1.27539 1.000005,1.000005 0 0 0 -1.275391,0.60938 C 43.282035,426.10202 38.104661,430 32,430 c -6.104661,0 -11.282035,-3.89798 -13.203125,-9.33203 a 1.000005,1.000005 0 0 0 -0.888672,-0.66406 z" fill="#000000" fill-rule="evenodd" stroke-linecap="round" stroke-linejoin="round" stroke-miterlimit="3.3"/><path style="color:#000000;" d="m 47.773438,399.99219 a 1,1 0 0 0 -0.310547,0.0351 1,1 0 0 0 -0.695313,1.23047 c 0.508417,1.83577 0.773437,3.84005 0.773438,5.86719 0,1.64718 -0.175177,3.28244 -0.515625,4.82617 a 1,1 0 0 0 0.761718,1.19141 1,1 0 0 0 1.191407,-0.76172 c 0.373222,-1.69234 0.5625,-3.46712 0.5625,-5.25586 -10e-7,-2.20135 -0.287386,-4.37739 -0.847657,-6.40039 a 1,1 0 0 0 -0.919921,-0.73242 z" fill="#000000" fill-rule="evenodd" stroke-linecap="round" stroke-linejoin="round" stroke-miterlimit="3.3"/><path style="color:#000000;" d="m 16.226562,399.99219 a 1,1 0 0 0 -0.919921,0.73242 c -0.560271,2.023 -0.847656,4.19904 -0.847657,6.40039 0,1.78874 0.189278,3.56352 0.5625,5.25586 a 1,1 0 0 0 1.191407,0.76172 1,1 0 0 0 0.761718,-1.19141 c -0.340448,-1.54373 -0.515625,-3.17899 -0.515625,-4.82617 10e-7,-2.02714 0.265021,-4.03142 0.773438,-5.86719 a 1,1 0 0 0 -0.695313,-1.23047 1,1 0 0 0 -0.310547,-0.0351 z" fill="#000000" fill-rule="evenodd" stroke-linecap="round" stroke-linejoin="round" stroke-miterlimit="3.3"/><path style="color:#000000;" d="m 52.65625,396.33789 a 1,1 0 0 0 -0.373047,0.11328 1,1 0 0 0 -0.414062,1.35352 C 53.224584,400.35012 54,403.67903 54,407.125 c 0,2.79694 -0.507729,5.5335 -1.439453,7.83789 a 1,1 0 0 0 0.552734,1.30078 1,1 0 0 0 1.300781,-0.55078 C 55.45633,413.1351 56,410.16221 56,407.125 c 0,-3.74184 -0.821024,-7.36179 -2.365234,-10.26172 a 1,1 0 0 0 -0.978516,-0.52539 z" fill="#000000" fill-rule="evenodd" stroke-linecap="round" stroke-linejoin="round" stroke-miterlimit="3.3"/><path style="color:#000000;" d="m 11.34375,396.33789 a 1,1 0 0 0 -0.978516,0.52539 C 8.8210235,399.76321 8.0000004,403.38316 8,407.125 c 3e-7,3.03721 0.5436702,6.0101 1.5859375,8.58789 a 1,1 0 0 0 1.3007815,0.55078 1,1 0 0 0 0.552734,-1.30078 C 10.507729,412.6585 10,409.92194 10,407.125 c 0,-3.44597 0.775416,-6.77488 2.130859,-9.32031 a 1,1 0 0 0 -0.414062,-1.35352 1,1 0 0 0 -0.373047,-0.11328 z" fill="#000000" fill-rule="evenodd" stroke-linecap="round" stroke-linejoin="round" stroke-miterlimit="3.3"/><path style="color:#000000;" d="m 32,392 c -4.958708,0 -9,4.04129 -9,9 0,5 0,10 0,15 0,4.95871 4.041292,9 9,9 4.958708,0 9,-4.04129 9,-9 0,-5 0,-10 0,-15 0,-4.95871 -4.041292,-9 -9,-9 z m 0,2 c 3.87783,0 7,3.12217 7,7 v 6.5 H 25 V 401 c 0,-3.87783 3.12217,-7 7,-7 z m -7,15.5 h 14 v 6.5 c 0,3.87783 -3.12217,7 -7,7 -3.87783,0 -7,-3.12217 -7,-7 z" fill="#000000" fill-rule="evenodd" stroke-linecap="round" stroke-linejoin="round" stroke-miterlimit="3.3"/></g></svg>