<svg xmlns:dc="http://purl.org/dc/elements/1.1/" xmlns:cc="http://creativecommons.org/ns#" xmlns:rdf="http://www.w3.org/1999/02/22-rdf-syntax-ns#" xmlns:svg="http://www.w3.org/2000/svg" xmlns="http://www.w3.org/2000/svg" xmlns:sodipodi="http://sodipodi.sourceforge.net/DTD/sodipodi-0.dtd" xmlns:inkscape="http://www.inkscape.org/namespaces/inkscape" version="1.1" x="0px" y="0px" viewBox="0 0 100 125"><g transform="translate(0,-952.36218)"><path style="text-indent:0;text-transform:none;direction:ltr;block-progression:tb;baseline-shift:baseline;color:#000000;enable-background:accumulate;" d="m 11.809534,962.36218 c -1.045714,0.0489 -1.9527035,1.04644 -1.9036862,2.09377 0.049017,1.04733 1.0452012,1.95553 2.0908942,1.90623 l 73.884984,0 0,66.00002 c -0.01492,1.0566 0.941803,2.0285 1.996892,2.0285 1.055088,0 2.011811,-0.9719 1.996891,-2.0285 l 0,-68.00002 c -1.05e-4,-1.04717 -0.95135,-1.99989 -1.996891,-2 -25.352504,0 -50.729758,0 -76.069084,0 z m -0.0312,7.96875 c -0.981224,0.108 -1.7997117,1.04281 -1.7784813,2.03125 l 0,68.00002 c 1.048e-4,1.0471 0.9513503,1.9999 1.9968913,2 l 75.881876,0 c 1.054982,0.015 2.025331,-0.9433 2.025331,-2 0,-1.0568 -0.970349,-2.015 -2.025331,-2 l -73.884984,0 0,-66.00002 c 0.0244,-1.13455 -1.089065,-2.15551 -2.215302,-2.03125 z m 65.959821,10 c -0.639563,0.0559 -1.241474,0.44177 -1.560071,1 l -15.195096,25.68747 -24.493122,-6.5937 c -0.836264,-0.2305 -1.80322,0.1595 -2.246503,0.9062 l -13.97824,24 c -0.609481,0.9012 -0.298133,2.2901 0.637469,2.8438 0.935601,0.5538 2.30056,0.1569 2.794688,-0.8125 l 13.229406,-22.6875 24.46192,6.5937 c 0.836265,0.2305 1.80322,-0.1595 2.246503,-0.9062 l 15.975132,-27.00002 c 0.379792,-0.62666 0.376268,-1.46664 -0.0088,-2.09009 -0.385037,-0.62344 -1.133881,-1.00168 -1.863318,-0.94116 z" fill="#000000" fill-opacity="1" fill-rule="nonzero" stroke="none" marker="none" visibility="visible" display="inline" overflow="visible"/></g></svg>