<svg xmlns="http://www.w3.org/2000/svg" xmlns:xlink="http://www.w3.org/1999/xlink" version="1.1" x="0px" y="0px" viewBox="0 0 100 125" style="enable-background:new 0 0 100 100;" xml:space="preserve"><style type="text/css">	.st0{fill-rule:evenodd;clip-rule:evenodd;}</style><path class="st0" d="M43.616,11.113c-0.481,0,0.899,6.004-1.031,8.746c-1.935,2.75-5.711,2.101-11.903,7.356  c-3.645,3.094-7.271,0.029-11.173-2.195l-6.375,11.112l4.805,2.77l-0.002,0.004c5.098,2.948,0.954,6.961,2.667,16.44  c0.417,2.309-0.636,4.575-2.667,5.749l0.002,0.004l-4.805,2.77l6.421,11.121c2.801-1.508,5.379-3.738,8.058-3.495v0.001  c3.364,0.309,4.671,3.895,12.311,6.63c4.509,1.614,3.668,6.266,3.692,10.763l12.798-0.03c0-3.131-0.467-6.629,1.001-8.716  c1.935-2.749,5.711-2.101,11.903-7.356c3.645-3.094,7.271-0.029,11.173,2.196l6.375-11.112l-4.805-2.77l0.002-0.004  c-5.098-2.948-0.954-6.961-2.667-16.44c-0.417-2.309,0.636-4.575,2.667-5.749l-0.002-0.004l4.805-2.77l-6.421-11.121  c-2.8,1.508-5.38,3.737-8.058,3.495v-0.001c-3.363-0.309-4.672-3.896-12.311-6.63c-4.509-1.614-3.668-6.267-3.692-10.763H43.616  L43.616,11.113z M50,32.063c15.929,0,23.956,19.349,12.684,30.621C51.412,73.955,32.063,65.929,32.063,50  C32.063,40.093,40.094,32.063,50,32.063L50,32.063z M59.586,40.414c5.294,5.294,5.294,13.878,0,19.171  C51.068,68.103,36.444,62.039,36.444,50C36.444,37.961,51.066,31.896,59.586,40.414L59.586,40.414z M40.499,8.025  c0.798-0.798,1.902-1.293,3.118-1.293h12.768c2.432,0,4.411,1.979,4.411,4.411c0,8.919-1.114,4.897,6.322,9.195  c7.487,4.328,3.375,5.371,11.137,0.891c2.948-1.702,5.92,0.638,6.319,2.127l6.084,10.547c1.216,2.108,0.496,4.787-1.611,6.007  l0.002,0.004c-8.886,5.131-3.839,0.762-4.947,13.155c-0.436,4.872-1.867,3.083,4.947,7.018l-0.002,0.004  c1.054,0.611,1.762,1.589,2.052,2.672c0.498,1.862-0.306,2.84-0.441,3.344l-6.384,11.057l-0.004-0.002  c-3.223,5.565-9.947-1.446-11.488-1.32v0.001c-0.559,0.05-3.424,2.527-5.662,3.82c-7.438,4.299-6.325,0.277-6.325,9.196  c0,2.432-1.979,4.411-4.411,4.411H43.616c-2.432,0-4.411-1.979-4.411-4.411c0-8.919,1.114-4.897-6.322-9.195  c-7.486-4.327-3.377-5.372-11.137-0.891c-2.947,1.702-5.92-0.638-6.319-2.127L9.343,66.097c-1.216-2.108-0.497-4.787,1.611-6.007  l-0.002-0.004c8.886-5.131,3.839-0.762,4.947-13.155c0.436-4.872,1.867-3.083-4.947-7.017l0.002-0.004  c-1.054-0.611-1.762-1.589-2.052-2.672c-0.499-1.862,0.306-2.84,0.441-3.344l6.384-11.057l0.004,0.002  c3.223-5.565,9.946,1.446,11.488,1.32v-0.001c0.559-0.05,3.424-2.527,5.662-3.82c7.438-4.299,6.325-0.276,6.325-9.196  C39.205,9.926,39.7,8.823,40.499,8.025z"/></svg>